<svg xmlns="http://www.w3.org/2000/svg" viewBox="0 0 54.77 50.63">
    <defs>
        <style>.cls-1{fill:none;stroke:#000;stroke-linecap:round;stroke-linejoin:round;stroke-width:2.77px;}</style>
    </defs>
    <title>icon-print</title>
    <g id="Слой_2" data-name="Слой 2">
        <g id="Layer_1" data-name="Layer 1">
            <path class="cls-1"
                  d="M42.89,36.75H46a7.37,7.37,0,0,0,7.36-7.36V19.1A7.36,7.36,0,0,0,46,11.75H8.74A7.35,7.35,0,0,0,1.39,19.1V29.39a7.36,7.36,0,0,0,7.35,7.36h3.15"/>
            <path class="cls-1" d="M42.89,29.39V45.46a3.79,3.79,0,0,1-3.79,3.79H15.67a3.79,3.79,0,0,1-3.78-3.79V29.39"/>
            <path class="cls-1" d="M11.89,11.25V7.52A6.12,6.12,0,0,1,18,1.39H36.75a6.13,6.13,0,0,1,6.14,6.13v3.73"/>
            <line class="cls-1" x1="47.16" y1="29.39" x2="7.61" y2="29.39"/>
            <line class="cls-1" x1="36.23" y1="36.39" x2="18.54" y2="36.39"/>
            <line class="cls-1" x1="36.23" y1="43.39" x2="18.54" y2="43.39"/>
            <line class="cls-1" x1="47.01" y1="17.75" x2="43.01" y2="17.75"/>
        </g>
    </g>
</svg>